<svg width="20.02" height="18.01" viewBox="0 0 22 20" fill="none" xmlns="http://www.w3.org/2000/svg">
<path d="M19.4201 2.58002C18.9184 2.07659 18.3223 1.67716 17.6659 1.40461C17.0095 1.13206 16.3058 0.99176 15.5951 0.99176C14.8844 0.99176 14.1806 1.13206 13.5243 1.40461C12.8679 1.67716 12.2718 2.07659 11.7701 2.58002L11.0001 3.36002L10.2301 2.58002C9.72841 2.07659 9.13229 1.67716 8.47591 1.40461C7.81953 1.13206 7.1158 0.99176 6.40509 0.99176C5.69437 0.99176 4.99065 1.13206 4.33427 1.40461C3.67789 1.67716 3.08176 2.07659 2.58009 2.58002C0.460086 4.70002 0.330086 8.28002 3.00009 11L11.0001 19L19.0001 11C21.6701 8.28002 21.5401 4.70002 19.4201 2.58002Z" stroke="#767676" stroke-width="1.5" stroke-linecap="round" stroke-linejoin="round"/>
</svg>
