<svg width="64" height="64" viewBox="0 0 64 64" fill="none" xmlns="http://www.w3.org/2000/svg">
<circle cx="32" cy="32" r="32" fill="#FDEFE8"/>
<path d="M32.0001 27.3334L34.8215 34.1167L42.1447 34.7039L36.5652 39.4834L38.2697 46.6295L32.0001 42.8001L25.7304 46.6295L27.435 39.4834L21.8555 34.7039L29.1787 34.1167L32.0001 27.3334ZM32.0001 34.2761L31.0153 36.6447L28.4601 36.8494L30.4068 38.5178L29.8108 41.0121L32.0001 39.6753L34.1881 41.0121L33.5933 38.5178L35.5388 36.8494L32.9848 36.6447L32.0001 34.2761ZM26.6667 18.6667V30.6667H24.0001V18.6667H26.6667ZM40.0001 18.6667V30.6667H37.3335V18.6667H40.0001ZM33.3335 18.6667V25.3334H30.6668V18.6667H33.3335Z" fill="#f15a21"/>
</svg>
