<svg width="32" height="32" viewBox="0 0 32 32" fill="none" xmlns="http://www.w3.org/2000/svg">
<path d="M11.9524 24C11.6289 26.2615 9.68399 28 7.33301 28C4.98202 28 3.03709 26.2615 2.71359 24H1.33301V8.00002C1.33301 7.26365 1.92997 6.66669 2.66634 6.66669H21.333C22.0694 6.66669 22.6663 7.26365 22.6663 8.00002V10.6667H26.6663L30.6663 16.0743V24H27.9525C27.6289 26.2615 25.6839 28 23.333 28C20.9821 28 19.0371 26.2615 18.7135 24H11.9524ZM19.9997 9.33335H3.99967V20.0674C4.84669 19.203 6.02722 18.6667 7.33301 18.6667C9.19461 18.6667 10.8016 19.7567 11.5506 21.3334H19.1154C19.339 20.8627 19.6391 20.4352 19.9997 20.0674V9.33335ZM22.6663 17.3334H27.9997V16.9534L25.3219 13.3334H22.6663V17.3334ZM23.333 25.3334C24.2038 25.3334 24.9446 24.7768 25.2191 24C25.2929 23.7915 25.333 23.5671 25.333 23.3334C25.333 22.2288 24.4375 21.3334 23.333 21.3334C22.2285 21.3334 21.333 22.2288 21.333 23.3334C21.333 23.5671 21.3731 23.7915 21.4469 24C21.7214 24.7768 22.4622 25.3334 23.333 25.3334ZM9.33301 23.3334C9.33301 22.2288 8.43758 21.3334 7.33301 21.3334C6.22843 21.3334 5.33301 22.2288 5.33301 23.3334C5.33301 23.5671 5.37311 23.7915 5.44681 24C5.72137 24.7768 6.46219 25.3334 7.33301 25.3334C8.20382 25.3334 8.94465 24.7768 9.21921 24C9.2929 23.7915 9.33301 23.5671 9.33301 23.3334Z" fill="#f15a21"/>
</svg>
