<svg width="32" height="32" viewBox="0 0 32 32" fill="none" xmlns="http://www.w3.org/2000/svg">
<path d="M2.66699 29.3333C2.66699 23.4422 7.44262 18.6666 13.3337 18.6666C19.2247 18.6666 24.0003 23.4422 24.0003 29.3333H21.3337C21.3337 24.915 17.7519 21.3333 13.3337 21.3333C8.91538 21.3333 5.33366 24.915 5.33366 29.3333H2.66699ZM13.3337 17.3333C8.91366 17.3333 5.33366 13.7533 5.33366 9.33331C5.33366 4.91331 8.91366 1.33331 13.3337 1.33331C17.7537 1.33331 21.3337 4.91331 21.3337 9.33331C21.3337 13.7533 17.7537 17.3333 13.3337 17.3333ZM13.3337 14.6666C16.2803 14.6666 18.667 12.28 18.667 9.33331C18.667 6.38665 16.2803 3.99998 13.3337 3.99998C10.387 3.99998 8.00033 6.38665 8.00033 9.33331C8.00033 12.28 10.387 14.6666 13.3337 14.6666ZM24.3786 19.6037C28.0862 21.2748 30.667 25.0026 30.667 29.3333H28.0003C28.0003 26.0853 26.0647 23.2894 23.2841 22.0361L24.3786 19.6037ZM23.4619 4.55093C26.1262 5.64935 28.0003 8.27146 28.0003 11.3333C28.0003 15.1602 25.0726 18.3002 21.3337 18.6368V15.9528C23.5959 15.6296 25.3337 13.6853 25.3337 11.3333C25.3337 9.49245 24.2691 7.90135 22.7217 7.14178L23.4619 4.55093Z" fill="#f15a21"/>
</svg>
