<svg width="64" height="64" viewBox="0 0 64 64" fill="none" xmlns="http://www.w3.org/2000/svg">
<circle cx="32" cy="32" r="32" fill="#FDEFE8"/>
<path d="M30.5386 18.8L43.7379 20.6857L45.6235 33.885L33.367 46.1415C32.8463 46.6622 32.0022 46.6622 31.4814 46.1415L18.2821 32.9422C17.7614 32.4215 17.7614 31.5772 18.2821 31.0566L30.5386 18.8ZM31.4814 21.6285L21.1106 31.9994L32.4242 43.3131L42.7951 32.9422L41.381 23.0427L31.4814 21.6285ZM34.3099 30.1138C33.2685 29.0724 33.2685 27.3839 34.3099 26.3425C35.3513 25.3011 37.0397 25.3011 38.0811 26.3425C39.1225 27.3839 39.1225 29.0724 38.0811 30.1138C37.0397 31.1551 35.3513 31.1551 34.3099 30.1138Z" fill="#f15a21"/>
</svg>
