<svg width="64" height="64" viewBox="0 0 64 64" fill="none" xmlns="http://www.w3.org/2000/svg">
<circle cx="32" cy="32" r="32" fill="#FDEFE8"/>
<path d="M27.9524 40.0001C27.6289 42.2615 25.684 44.0001 23.333 44.0001C20.982 44.0001 19.0371 42.2615 18.7136 40.0001H17.333V24.0001C17.333 23.2637 17.93 22.6667 18.6663 22.6667H37.333C38.0694 22.6667 38.6663 23.2637 38.6663 24.0001V26.6667H42.6663L46.6663 32.0743V40.0001H43.9525C43.6289 42.2615 41.6839 44.0001 39.333 44.0001C36.9821 44.0001 35.0371 42.2615 34.7135 40.0001H27.9524ZM35.9997 25.3334H19.9997V36.0674C20.8467 35.203 22.0272 34.6667 23.333 34.6667C25.1946 34.6667 26.8016 35.7567 27.5506 37.3334H35.1154C35.339 36.8627 35.6391 36.4353 35.9997 36.0674V25.3334ZM38.6663 33.3334H43.9997V32.9534L41.3219 29.3334H38.6663V33.3334ZM39.333 41.3334C40.2038 41.3334 40.9446 40.7769 41.2191 40.0001C41.2929 39.7915 41.333 39.5671 41.333 39.3334C41.333 38.2289 40.4375 37.3334 39.333 37.3334C38.2285 37.3334 37.333 38.2289 37.333 39.3334C37.333 39.5671 37.3731 39.7915 37.4469 40.0001C37.7214 40.7769 38.4622 41.3334 39.333 41.3334ZM25.333 39.3334C25.333 38.2289 24.4376 37.3334 23.333 37.3334C22.2284 37.3334 21.333 38.2289 21.333 39.3334C21.333 39.5671 21.3731 39.7915 21.4468 40.0001C21.7214 40.7769 22.4622 41.3334 23.333 41.3334C24.2038 41.3334 24.9446 40.7769 25.2192 40.0001C25.2929 39.7915 25.333 39.5671 25.333 39.3334Z" fill="#f15a21"/>
</svg>
