<svg width="64" height="64" viewBox="0 0 64 64" fill="none" xmlns="http://www.w3.org/2000/svg">
<circle cx="32" cy="32" r="32" fill="#FDEFE8"/>
<path d="M42.7781 36.2664L44.3809 37.2281C44.6965 37.4176 44.7989 37.8271 44.6095 38.1428C44.5531 38.2365 44.4746 38.3151 44.3809 38.3715L32.6862 45.3881C32.2639 45.6415 31.7365 45.6415 31.3142 45.3881L19.6197 38.3715C19.304 38.182 19.2016 37.7725 19.391 37.4568C19.4473 37.3629 19.5258 37.2844 19.6197 37.2281L21.2225 36.2664L32.0002 42.7331L42.7781 36.2664ZM42.7781 29.9997L44.3809 30.9615C44.6965 31.1509 44.7989 31.5604 44.6095 31.8761C44.5531 31.9699 44.4746 32.0484 44.3809 32.1048L32.0002 39.5331L19.6197 32.1048C19.304 31.9153 19.2016 31.5059 19.391 31.1901C19.4473 31.0963 19.5258 31.0177 19.6197 30.9615L21.2225 29.9997L32.0002 36.4664L42.7781 29.9997ZM32.6862 17.7447L44.3809 24.7614C44.6965 24.9509 44.7989 25.3604 44.6095 25.6761C44.5531 25.7699 44.4746 25.8485 44.3809 25.9048L32.0002 33.3331L19.6197 25.9048C19.304 25.7153 19.2016 25.3058 19.391 24.9901C19.4473 24.8963 19.5258 24.8177 19.6197 24.7614L31.3142 17.7447C31.7365 17.4914 32.2639 17.4914 32.6862 17.7447ZM32.0002 20.443L23.85 25.3331L32.0002 30.2232L40.1505 25.3331L32.0002 20.443Z" fill="#f15a21"/>
</svg>
