<svg width="39" height="50" viewBox="0 0 39 50" fill="none" xmlns="http://www.w3.org/2000/svg">
<path fill-rule="evenodd" clip-rule="evenodd" d="M17.6733 0.531603C17.0512 0.838652 15.848 1.52485 14.9993 2.05655C13.5894 2.94011 13.2732 3.02335 11.3231 3.0239C7.8344 3.02446 6.80676 3.7989 5.43299 7.46233C4.74186 9.30574 4.48368 9.65705 2.96653 10.817C-0.135058 13.1885 -0.519363 14.3833 0.606688 18.1517L1.21439 20.1844L0.606688 22.0899C-0.535765 25.6734 -0.16277 27.001 2.56894 29.0702C4.34398 30.4147 5.36936 31.7192 5.37106 32.6356C5.37162 32.9229 4.16611 36.0204 2.69195 39.5187C1.09987 43.2974 0.0843838 46.0661 0.190711 46.3387C0.368866 46.796 0.788236 46.7985 4.93472 46.3682C5.31846 46.3284 5.88035 46.8372 6.77282 48.0323C8.18958 49.9289 8.95479 50.3957 9.48275 49.6847C9.66741 49.4359 10.8758 46.6961 12.1675 43.5961C13.4593 40.4958 14.544 37.9217 14.5777 37.8755C14.6116 37.8293 15.4371 38.2989 16.4124 38.9194C18.8791 40.4889 20.1952 40.485 22.604 38.9016C23.5629 38.2713 24.383 37.8014 24.4268 37.8577C24.4707 37.9136 25.5636 40.4958 26.8554 43.5961C28.1472 46.6961 29.3555 49.4359 29.5402 49.6847C30.0681 50.3957 30.8333 49.9289 32.2501 48.0323C33.1426 46.8372 33.7044 46.3284 34.0882 46.3682C38.2002 46.7949 38.6549 46.7935 38.8268 46.3523C38.9258 46.0984 37.8518 43.1585 36.3256 39.5062C34.8543 35.9856 33.6513 32.882 33.6519 32.6094C33.6535 31.7531 34.6945 30.3844 36.2506 29.1921C39.1633 26.9606 39.5315 25.7731 38.4239 22.1831L37.8241 20.2392L38.462 17.902C39.3627 14.603 39.1752 13.5421 37.4152 11.977C36.6669 11.3117 35.609 10.3714 35.0646 9.88754C34.4018 9.29878 33.9106 8.49204 33.5778 7.44535C32.5145 4.10372 31.1243 3.02836 27.8536 3.01778C25.7327 3.01054 24.9299 2.72075 22.069 0.92801C20.2959 -0.182988 19.303 -0.272625 17.6733 0.531603ZM22.3568 3.21264C24.3004 4.48482 24.4133 4.5199 27.1693 4.70808C30.4046 4.92883 30.8243 5.16378 31.5578 7.16336C32.6344 10.098 33.1049 10.7878 34.9286 12.1059C37.3643 13.8664 37.5942 14.4782 36.8089 17.1064C36.0428 19.6697 36.042 20.4736 36.8032 23.0024C37.5662 25.5356 37.44 25.8502 34.8438 27.8893C33.7692 28.7333 32.7469 29.7786 32.5722 30.2121C32.3977 30.6455 31.9933 31.7033 31.6743 32.5629C30.8195 34.8643 30.4731 35.075 27.1766 35.2999C24.3765 35.4912 24.351 35.4995 22.1931 36.9346C21 37.7279 19.7942 38.3771 19.5134 38.3771C19.2326 38.3771 18.3218 37.922 17.4895 37.3655C15.0092 35.7075 13.9304 35.3278 11.6775 35.3211C8.99382 35.313 8.32786 34.9865 7.74843 33.3944C6.58505 30.1976 5.95218 29.2455 4.10135 27.9077C1.69428 26.1678 1.46607 25.5815 2.23101 23.1021C2.97728 20.6835 2.98124 19.3379 2.24939 16.9655C1.51895 14.5979 1.72058 14.0125 3.78491 12.5112C5.79523 11.0492 6.57233 9.99305 7.34263 7.67529C7.73062 6.50834 8.20372 5.64259 8.5801 5.41153C8.91549 5.20581 10.3124 4.9589 11.6845 4.86258C14.2898 4.67941 15.0222 4.41829 17.351 2.84129C19.2063 1.58498 19.9551 1.64038 22.3568 3.21264ZM16.9664 6.12334C12.8287 6.79089 8.70227 9.86137 6.7782 13.7035C5.20365 16.8486 4.79163 19.6608 5.4607 22.6973C6.15409 25.8438 7.14751 27.6399 9.4508 29.9122C15.0471 35.4336 23.365 35.6493 29.1007 30.4219C32.4494 27.3698 33.7333 24.4889 33.7435 20.0043C33.7508 16.7498 33.2381 14.9763 31.5307 12.3489C29.4856 9.20218 25.5628 6.689 21.7737 6.09801C19.678 5.7712 19.13 5.77398 16.9664 6.12334ZM24.036 8.55774C27.1139 9.71718 29.8982 12.445 31.1724 15.5503C31.6876 16.8055 31.8019 17.6334 31.8067 20.1435C31.8123 23.0174 31.7569 23.3214 30.9074 25.0872C29.6499 27.7003 27.5547 29.7967 24.9203 31.0786C22.8364 32.0925 22.7259 32.1136 19.5262 32.1136C16.4407 32.1136 16.1539 32.0644 14.3583 31.227C13.3125 30.7393 11.8064 29.7416 11.0115 29.0095C3.9478 22.5052 6.83447 10.7486 16.1248 8.18416C18.2265 7.60402 21.9737 7.78107 24.036 8.55774ZM17.7941 13.375C17.1471 14.6481 16.5696 15.741 16.5108 15.8041C16.4517 15.8671 15.307 16.0783 13.9669 16.2735C12.6268 16.4684 11.3537 16.6949 11.1376 16.7765C10.3385 17.0783 10.7952 17.9802 12.6791 19.8208L14.6133 21.7102L14.2494 23.7106C13.4833 27.9224 13.7497 28.1671 17.1624 26.3858L19.5216 25.1542L21.8829 26.3813C25.2763 28.1446 25.4771 27.9703 24.8355 23.8197L24.5001 21.65L26.3888 19.7763C28.2385 17.9415 28.6714 17.0733 27.8853 16.7765C27.6692 16.6949 26.3707 16.4647 24.9992 16.2651C23.6277 16.0655 22.466 15.7916 22.4176 15.6566C22.3693 15.5216 21.8546 14.4716 21.2741 13.3233C19.7733 10.3549 19.3257 10.3616 17.7941 13.375ZM20.4916 15.8089C21.332 17.5401 21.4013 17.5841 23.8239 17.9282C24.5626 18.0331 25.1672 18.2037 25.1672 18.3076C25.1672 18.4114 24.5846 19.055 23.8726 19.7376C22.5964 20.9611 22.5805 20.9984 22.7573 22.3705C22.856 23.136 23.0084 24.0502 23.096 24.4018C23.2496 25.017 23.186 25.0036 21.427 24.0519L19.5986 23.0625L18.0051 23.8996C17.1287 24.36 16.3095 24.7367 16.1848 24.7367C16.0601 24.7367 16.0832 23.8456 16.236 22.7563L16.5142 20.7759L15.1848 19.5397C14.4538 18.8596 13.8557 18.2619 13.8557 18.2113C13.8557 18.1603 14.4603 18.0331 15.199 17.9282C17.6216 17.5841 17.6909 17.5401 18.5313 15.8089C18.9719 14.9011 19.413 14.1584 19.5115 14.1584C19.6099 14.1584 20.051 14.9011 20.4916 15.8089ZM8.07844 36.5938C8.60188 36.809 9.87498 36.9852 10.9077 36.9852C12.5753 36.9852 12.765 37.0398 12.6067 37.4724C12.5083 37.7405 11.5728 40.061 10.5279 42.6293L8.62761 47.2991L8.06034 46.5268C7.74843 46.1023 7.17494 45.4089 6.78611 44.9857C6.09838 44.2378 6.03334 44.2241 4.39997 44.4922C3.47611 44.6436 2.68459 44.7321 2.64048 44.6887C2.57403 44.6233 3.73486 41.7777 6.1244 36.1501C6.49513 35.2771 6.56865 35.2292 6.83249 35.6891C6.99424 35.9714 7.55501 36.3784 8.07844 36.5938ZM34.615 40.1648C35.6384 42.6026 36.4367 44.6355 36.3889 44.6823C36.3414 44.7294 35.5468 44.6436 34.6229 44.4922C32.987 44.2238 32.9254 44.2366 32.2258 44.9935C31.831 45.4208 31.2931 46.0722 31.0304 46.4414C30.768 46.8105 30.4866 47.0468 30.4052 46.9669C30.19 46.7548 26.2983 37.535 26.2983 37.2369C26.2983 37.0985 27.1379 36.9852 28.1644 36.9852C30.0998 36.9852 31.874 36.4012 32.159 35.6699C32.4051 35.0383 32.6539 35.4937 34.615 40.1648Z" fill="#F97537"/>
</svg>
