<svg width="20" height="20" viewBox="0 0 20 20" fill="none" xmlns="http://www.w3.org/2000/svg">
<path d="M16.4632 8.33366C16.4632 13.3337 9.87785 18.3337 9.87785 18.3337C9.87785 18.3337 3.29248 13.3337 3.29248 8.33366C3.29248 6.56555 3.98629 4.86986 5.22129 3.61961C6.45629 2.36937 8.1313 1.66699 9.87785 1.66699C11.6244 1.66699 13.2994 2.36937 14.5344 3.61961C15.7694 4.86986 16.4632 6.56555 16.4632 8.33366V8.33366Z" stroke="#f15a21" stroke-width="1.5" stroke-linecap="round" stroke-linejoin="round"/>
<path d="M9.87796 10.833C11.2418 10.833 12.3475 9.71372 12.3475 8.33301C12.3475 6.9523 11.2418 5.83301 9.87796 5.83301C8.51409 5.83301 7.40845 6.9523 7.40845 8.33301C7.40845 9.71372 8.51409 10.833 9.87796 10.833Z" stroke="#f15a21" stroke-width="1.5" stroke-linecap="round" stroke-linejoin="round"/>
</svg>
