<svg width="16" height="16" viewBox="0 0 16 16" fill="none" xmlns="http://www.w3.org/2000/svg">
<path d="M13.3332 7.99999V5.33332H3.99984C3.64622 5.33332 3.30708 5.19285 3.05703 4.9428C2.80698 4.69275 2.6665 4.35361 2.6665 3.99999C2.6665 3.26666 3.2665 2.66666 3.99984 2.66666H11.9998V5.33332" stroke="#484848" stroke-width="1.5" stroke-linecap="round" stroke-linejoin="round"/>
<path d="M2.6665 4V12C2.6665 12.7333 3.2665 13.3333 3.99984 13.3333H13.3332V10.6667" stroke="#484848" stroke-width="1.5" stroke-linecap="round" stroke-linejoin="round"/>
<path d="M11.9998 8C11.6462 8 11.3071 8.14048 11.057 8.39052C10.807 8.64057 10.6665 8.97971 10.6665 9.33333C10.6665 10.0667 11.2665 10.6667 11.9998 10.6667H14.6665V8H11.9998Z" stroke="#484848" stroke-width="1.5" stroke-linecap="round" stroke-linejoin="round"/>
</svg>
