<svg width="54" height="54" viewBox="0 0 54 54" fill="none" xmlns="http://www.w3.org/2000/svg">
<path fill-rule="evenodd" clip-rule="evenodd" d="M26.0362 2.17349C22.2449 6.85146 15.8972 9.83128 8.74009 10.2931C7.4529 10.3762 6.73135 10.5079 6.54158 10.6946C6.2985 10.9341 6.26828 12.5127 6.32371 22.0816L6.388 33.1904L6.91169 35.0853C7.57415 37.4824 9.17044 40.7037 10.7196 42.7692C12.3001 44.8765 15.1934 47.6602 17.4525 49.2467C19.7119 50.8334 23.5994 52.8016 25.822 53.4837L27.5034 53.9999L29.1607 53.4688C31.4119 52.7474 35.2467 50.7935 37.4249 49.2579C39.7161 47.6425 42.6579 44.8198 44.1873 42.7692C45.7349 40.694 47.3288 37.4716 47.9884 35.0853L48.5121 33.1904L48.5764 22.0816C48.6318 12.5127 48.6016 10.9341 48.3585 10.6946C48.1687 10.5079 47.4472 10.3762 46.16 10.2931C39.0479 9.83432 32.1065 6.56591 28.8554 2.14545C27.6298 0.478943 27.4075 0.481217 26.0362 2.17349ZM28.6862 4.81925C32.4191 8.71504 38.871 11.5649 45.3114 12.1625L46.7174 12.2931L46.651 22.647C46.5773 34.1479 46.6011 33.9139 45.1577 37.3274C43.51 41.2243 39.4548 45.6753 34.9034 48.5828C33.2488 49.6395 30.2073 51.1311 28.6693 51.6399L27.4828 52.0325L26.1107 51.573C24.5845 51.062 21.7558 49.691 20.1364 48.6777C15.6105 45.8455 11.3999 41.2475 9.74244 37.3274C8.29897 33.9139 8.32283 34.1475 8.24912 22.6498L8.18272 12.2989L9.49243 12.172C16.1802 11.5243 22.6107 8.67051 26.2953 4.71542C26.8775 4.0905 27.3769 3.56942 27.4054 3.55767C27.4337 3.54592 28.0101 4.11362 28.6862 4.81925ZM25.4292 13.3354C22.4985 13.7343 19.6736 15.1239 17.4148 17.2778C10.842 23.5448 11.8085 34.1039 19.4209 39.1959C25.0462 42.9587 32.7975 42.2138 37.6414 37.4447C43.2501 31.923 43.2501 22.8994 37.6414 17.3777C34.4934 14.2783 29.8329 12.7357 25.4292 13.3354ZM30.0483 15.3788C33.5827 16.107 36.993 18.7177 38.5869 21.9162C40.4055 25.5649 40.4055 29.2575 38.5869 32.9062C37.4607 35.1662 35.327 37.2668 33.0315 38.3757C29.3254 40.1661 25.5747 40.1661 21.8686 38.3757C19.5731 37.2668 17.4394 35.1662 16.3131 32.9062C14.4946 29.2575 14.4946 25.5649 16.3131 21.9162C17.8863 18.7596 21.3006 16.1199 24.7556 15.3894C26.4052 15.0406 28.387 15.0366 30.0483 15.3788ZM27.3269 26.1146L21.8954 31.4498L21.1659 29.9986C20.4319 28.538 20.0754 28.2318 19.367 28.4532C18.6217 28.686 18.7085 29.3435 19.7579 31.4127C20.893 33.6509 21.1898 34.0431 21.747 34.0431C22.2378 34.0431 33.9542 22.5974 34.1199 21.956C34.2559 21.4286 33.723 20.7793 33.1537 20.7793C32.8929 20.7793 30.9115 22.5936 27.3269 26.1146Z" fill="#F97537"/>
</svg>
