<svg width="25" height="24" viewBox="0 0 25 24" fill="none" xmlns="http://www.w3.org/2000/svg">
<path d="M11.4896 11.8908L11.488 11.5072C11.488 9.91289 11.5813 8.45943 11.7219 7.51193L11.8452 6.92273C11.9137 6.61068 12.0038 6.25537 12.0978 6.07399C12.4417 5.4105 13.1141 5 13.8338 5H13.8965C14.3656 5.01551 15.3513 5.42721 15.3513 5.44153C16.9372 6.10698 19.997 8.11536 21.4102 9.54717L21.8208 9.97704C21.9284 10.0935 22.0492 10.2314 22.1242 10.3389C22.3747 10.6706 22.5 11.0811 22.5 11.4916C22.5 11.9499 22.3594 12.3759 22.0935 12.7243L21.6715 13.1797L21.577 13.2768C20.2948 14.6671 16.9467 16.9403 15.1953 17.636L14.9308 17.7374C14.6126 17.8514 14.1668 17.9875 13.8965 18C13.5526 18 13.224 17.92 12.9108 17.7625C12.5197 17.5418 12.2077 17.1933 12.0351 16.7828C11.9252 16.4988 11.7527 15.6456 11.7527 15.6301C11.5945 14.7698 11.5028 13.4123 11.4896 11.8908ZM3 11.4995C3 10.5914 3.72917 9.85513 4.62853 9.85513L8.63602 10.2095C9.34156 10.2095 9.91355 10.7871 9.91355 11.4995C9.91355 12.2131 9.34156 12.7895 8.63602 12.7895L4.62853 13.1439C3.72917 13.1439 3 12.4076 3 11.4995Z" fill="white"/>
</svg>
