<svg width="82" height="82" viewBox="0 0 82 82" fill="none" xmlns="http://www.w3.org/2000/svg">
<circle cx="41" cy="41" r="41" fill="#f4f9fc"/>
<path fill-rule="evenodd" clip-rule="evenodd" d="M46.25 26.5625C46.25 26.2144 46.3883 25.8806 46.6344 25.6344C46.8806 25.3883 47.2144 25.25 47.5625 25.25H55.4375C55.7856 25.25 56.1195 25.3883 56.3656 25.6344C56.6117 25.8806 56.75 26.2144 56.75 26.5625V34.4375C56.75 34.7856 56.6117 35.1194 56.3656 35.3656C56.1195 35.6117 55.7856 35.75 55.4375 35.75C55.0894 35.75 54.7556 35.6117 54.5094 35.3656C54.2633 35.1194 54.125 34.7856 54.125 34.4375V29.73L45.865 37.99C45.7449 38.119 45.6 38.2224 45.439 38.2941C45.278 38.3659 45.1042 38.4044 44.9279 38.4075C44.7517 38.4106 44.5767 38.3782 44.4132 38.3122C44.2498 38.2462 44.1013 38.1479 43.9767 38.0233C43.8521 37.8987 43.7538 37.7502 43.6878 37.5868C43.6218 37.4234 43.5894 37.2483 43.5925 37.0721C43.5956 36.8959 43.6342 36.7221 43.7059 36.5611C43.7776 36.4001 43.8811 36.2552 44.01 36.135L52.27 27.875H47.5625C47.2144 27.875 46.8806 27.7367 46.6344 27.4906C46.3883 27.2444 46.25 26.9106 46.25 26.5625Z" fill="#f15a21"/>
<path fill-rule="evenodd" clip-rule="evenodd" d="M22.625 27.875C22.625 26.4826 23.1781 25.1473 24.1627 24.1627C25.1473 23.1781 26.4826 22.625 27.875 22.625H30.276C31.781 22.625 33.0935 23.6505 33.4592 25.11L35.393 32.8503C35.5497 33.4767 35.5181 34.1356 35.302 34.7441C35.086 35.3527 34.6951 35.884 34.1785 36.2715L31.9158 37.969C31.6795 38.1457 31.6287 38.4047 31.6953 38.585C32.6829 41.271 34.2425 43.7102 36.2662 45.7338C38.2898 47.7575 40.729 49.3171 43.415 50.3047C43.5953 50.3712 43.8525 50.3205 44.031 50.0842L45.7285 47.8215C46.116 47.3049 46.6473 46.914 47.2559 46.698C47.8644 46.4819 48.5233 46.4503 49.1497 46.607L56.89 48.5408C58.3495 48.9065 59.375 50.219 59.375 51.7257V54.125C59.375 55.5174 58.8219 56.8527 57.8373 57.8373C56.8527 58.8219 55.5174 59.375 54.125 59.375H50.1875C34.966 59.375 22.625 47.034 22.625 31.8125V27.875Z" fill="#f15a21"/>
</svg>
