<svg width="82" height="82" viewBox="0 0 82 82" fill="none" xmlns="http://www.w3.org/2000/svg">
<circle cx="41" cy="41" r="41" fill="#f4f9fc"/>
<path fill-rule="evenodd" clip-rule="evenodd" d="M42.032 21.3399C41.7534 21.0757 41.384 20.9285 41 20.9285C40.616 20.9285 40.2467 21.0757 39.968 21.3399C35.7226 25.3717 30.0683 27.5826 24.214 27.4999C23.8951 27.4958 23.5831 27.5934 23.3235 27.7786C23.0638 27.9638 22.8699 28.227 22.77 28.5299C21.926 31.1022 21.4972 33.7926 21.5 36.4999C21.5 48.3839 29.628 58.3659 40.626 61.1959C40.8713 61.2592 41.1287 61.2592 41.374 61.1959C52.372 58.3659 60.5 48.3839 60.5 36.4999C60.5 33.7199 60.054 31.0399 59.23 28.5299C59.1304 28.2266 58.9367 27.963 58.677 27.7774C58.4173 27.5918 58.1052 27.4939 57.786 27.4979L57.5 27.4999C51.508 27.4999 46.066 25.1599 42.032 21.3399ZM48.22 37.3719C48.34 37.212 48.4268 37.0297 48.4754 36.8358C48.5239 36.6419 48.5332 36.4402 48.5027 36.2426C48.4722 36.045 48.4025 35.8555 48.2977 35.6853C48.1929 35.515 48.0552 35.3675 47.8925 35.2512C47.7299 35.135 47.5456 35.0524 47.3506 35.0084C47.1556 34.9643 46.9538 34.9597 46.757 34.9948C46.5602 35.0299 46.3723 35.104 46.2046 35.2127C46.0368 35.3214 45.8925 35.4626 45.78 35.6279L39.308 44.6879L36.06 41.4399C35.7757 41.1749 35.3996 41.0307 35.011 41.0375C34.6224 41.0444 34.2516 41.2018 33.9768 41.4767C33.7019 41.7515 33.5445 42.1223 33.5377 42.5109C33.5308 42.8995 33.6751 43.2756 33.94 43.5599L38.44 48.0599C38.594 48.2138 38.7796 48.3323 38.984 48.4072C39.1884 48.4821 39.4066 48.5117 39.6235 48.4938C39.8405 48.4759 40.0509 48.411 40.2403 48.3036C40.4296 48.1962 40.5933 48.0489 40.72 47.8719L48.22 37.3719Z" fill="#f15a21"/>
</svg>
