<svg width="82" height="82" viewBox="0 0 82 82" fill="none" xmlns="http://www.w3.org/2000/svg">
<circle cx="41" cy="41" r="41" fill="#f4f9fc"/>
<path d="M23.75 26C21.678 26 20 27.68 20 29.75V44H44V29.75C44 27.678 42.32 26 40.25 26H23.75ZM44 47H20V52.25C20 54.32 21.68 56 23.75 56H24.5C24.5 54.4087 25.1321 52.8826 26.2574 51.7574C27.3826 50.6321 28.9087 50 30.5 50C32.0913 50 33.6174 50.6321 34.7426 51.7574C35.8679 52.8826 36.5 54.4087 36.5 56H42.5C42.8978 56 43.2794 55.842 43.5607 55.5607C43.842 55.2794 44 54.8978 44 54.5V47Z" fill="#f15a21"/>
<path d="M33.5 56C33.5 55.2044 33.1839 54.4413 32.6213 53.8787C32.0587 53.3161 31.2956 53 30.5 53C29.7044 53 28.9413 53.3161 28.3787 53.8787C27.8161 54.4413 27.5 55.2044 27.5 56C27.5 56.7957 27.8161 57.5587 28.3787 58.1214C28.9413 58.684 29.7044 59 30.5 59C31.2956 59 32.0587 58.684 32.6213 58.1214C33.1839 57.5587 33.5 56.7957 33.5 56ZM48.5 30.5C48.1022 30.5 47.7206 30.6581 47.4393 30.9394C47.158 31.2207 47 31.6022 47 32V54.5C47 54.674 47.03 54.84 47.084 54.996C47.3333 53.5183 48.1265 52.1874 49.3076 51.2651C50.4887 50.3428 51.9722 49.8958 53.4663 50.0122C54.9603 50.1286 56.3567 50.7998 57.3808 51.8938C58.4049 52.9879 58.9825 54.4256 59 55.924C60.706 55.574 62.044 54.054 61.928 52.158C61.4806 44.8348 58.8844 37.8058 54.464 31.95C54.1197 31.4972 53.6749 31.1306 53.1647 30.879C52.6545 30.6273 52.0929 30.4976 51.524 30.5H48.5Z" fill="#f15a21"/>
<path d="M56 56C56 55.2044 55.6839 54.4413 55.1213 53.8787C54.5587 53.3161 53.7956 53 53 53C52.2044 53 51.4413 53.3161 50.8787 53.8787C50.3161 54.4413 50 55.2044 50 56C50 56.7956 50.3161 57.5587 50.8787 58.1213C51.4413 58.6839 52.2044 59 53 59C53.7956 59 54.5587 58.6839 55.1213 58.1213C55.6839 57.5587 56 56.7956 56 56Z" fill="#f15a21"/>
</svg>
