<svg width="82" height="82" viewBox="0 0 82 82" fill="none" xmlns="http://www.w3.org/2000/svg">
<circle cx="41" cy="41" r="41" fill="#f4f9fc"/>
<path fill-rule="evenodd" clip-rule="evenodd" d="M41 21.5C30.23 21.5 21.5 30.23 21.5 41C21.5 51.77 30.23 60.5 41 60.5C51.77 60.5 60.5 51.77 60.5 41C60.5 30.23 51.77 21.5 41 21.5ZM35.75 33.5C34.67 33.5 34.094 34.338 33.878 34.768C33.6214 35.3089 33.4921 35.9014 33.5 36.5C33.5 37.096 33.618 37.71 33.878 38.232C34.094 38.662 34.668 39.5 35.75 39.5C36.83 39.5 37.406 38.662 37.622 38.232C37.882 37.712 38 37.096 38 36.5C38 35.904 37.882 35.29 37.622 34.768C37.406 34.338 36.832 33.5 35.75 33.5ZM44.378 34.768C44.594 34.338 45.168 33.5 46.25 33.5C47.33 33.5 47.906 34.338 48.122 34.768C48.382 35.288 48.5 35.904 48.5 36.5C48.5 37.096 48.382 37.71 48.122 38.232C47.906 38.662 47.332 39.5 46.25 39.5C45.17 39.5 44.594 38.662 44.378 38.232C44.1214 37.6911 43.9921 37.0986 44 36.5C44 35.904 44.118 35.29 44.378 34.768ZM48.424 48.424C48.5714 48.2867 48.6896 48.1211 48.7716 47.9371C48.8535 47.7531 48.8976 47.5545 48.9012 47.353C48.9047 47.1516 48.8677 46.9516 48.7922 46.7648C48.7168 46.578 48.6045 46.4084 48.4621 46.2659C48.3196 46.1235 48.15 46.0112 47.9632 45.9358C47.7764 45.8603 47.5764 45.8233 47.375 45.8268C47.1735 45.8304 46.9749 45.8745 46.7909 45.9564C46.6069 46.0384 46.4413 46.1566 46.304 46.304C45.6075 47.0007 44.7807 47.5533 43.8706 47.9303C42.9605 48.3073 41.9851 48.5014 41 48.5014C40.0149 48.5014 39.0395 48.3073 38.1294 47.9303C37.2193 47.5533 36.3925 47.0007 35.696 46.304C35.4116 46.039 35.0356 45.8948 34.647 45.9016C34.2584 45.9085 33.8876 46.0659 33.6128 46.3408C33.3379 46.6156 33.1805 46.9864 33.1737 47.375C33.1668 47.7636 33.311 48.1397 33.576 48.424C35.5451 50.3928 38.2155 51.4988 41 51.4988C43.7845 51.4988 46.4549 50.3928 48.424 48.424Z" fill="#f15a21"/>
</svg>
