<svg width="82" height="82" viewBox="0 0 82 82" fill="none" xmlns="http://www.w3.org/2000/svg">
<circle cx="41" cy="41" r="41" fill="#f4f9fc"/>
<path fill-rule="evenodd" clip-rule="evenodd" d="M34.206 24.598C35.0499 23.6245 36.0935 22.8439 37.2657 22.3094C38.438 21.7748 39.7116 21.4988 41 21.5C43.714 21.5 46.146 22.7 47.794 24.598C49.0794 24.5062 50.3695 24.6922 51.5766 25.1432C52.7838 25.5943 53.8797 26.2998 54.79 27.212C55.7018 28.1221 56.4072 29.2178 56.8582 30.4245C57.3092 31.6313 57.4954 32.9209 57.404 34.206C58.3772 35.0501 59.1574 36.0937 59.6916 37.266C60.2258 38.4383 60.5015 39.7118 60.5 41C60.5012 42.2884 60.2252 43.562 59.6906 44.7343C59.1561 45.9066 58.3756 46.9501 57.402 47.794C57.4934 49.0791 57.3072 50.3687 56.8562 51.5755C56.4052 52.7823 55.6998 53.8779 54.788 54.788C53.8779 55.6998 52.7823 56.4052 51.5755 56.8562C50.3687 57.3072 49.0791 57.4934 47.794 57.402C46.9501 58.3755 45.9066 59.1561 44.7343 59.6906C43.562 60.2252 42.2884 60.5012 41 60.5C39.7116 60.5012 38.438 60.2252 37.2657 59.6906C36.0935 59.1561 35.0499 58.3755 34.206 57.402C32.9208 57.494 31.6308 57.3084 30.4236 56.8577C29.2165 56.407 28.1205 55.7018 27.21 54.79C26.2979 53.8797 25.5924 52.7837 25.1414 51.5766C24.6904 50.3694 24.5044 49.0794 24.596 47.794C23.6228 46.9499 22.8427 45.9063 22.3085 44.734C21.7743 43.5617 21.4985 42.2883 21.5 41C21.5 38.286 22.7 35.854 24.598 34.206C24.5065 32.9209 24.6926 31.6312 25.1436 30.4244C25.5947 29.2177 26.3001 28.1221 27.212 27.212C28.1221 26.3001 29.2177 25.5947 30.4244 25.1436C31.6312 24.6926 32.9209 24.5065 34.206 24.598ZM48.22 37.372C48.34 37.2121 48.4268 37.0298 48.4754 36.8359C48.5239 36.642 48.5332 36.4403 48.5027 36.2427C48.4722 36.0451 48.4025 35.8557 48.2977 35.6854C48.1929 35.5151 48.0552 35.3676 47.8925 35.2513C47.7299 35.1351 47.5456 35.0525 47.3506 35.0085C47.1556 34.9644 46.9538 34.9598 46.757 34.9949C46.5601 35.03 46.3723 35.1041 46.2046 35.2128C46.0368 35.3215 45.8924 35.4627 45.78 35.628L39.308 44.688L36.06 41.44C35.7757 41.175 35.3996 41.0308 35.011 41.0377C34.6224 41.0445 34.2516 41.2019 33.9768 41.4768C33.7019 41.7516 33.5445 42.1224 33.5377 42.511C33.5308 42.8996 33.675 43.2757 33.94 43.56L38.44 48.06C38.594 48.2139 38.7796 48.3324 38.984 48.4073C39.1884 48.4822 39.4066 48.5118 39.6235 48.4939C39.8405 48.476 40.0509 48.4111 40.2403 48.3037C40.4296 48.1963 40.5933 48.049 40.72 47.872L48.22 37.372Z" fill="#f15a21"/>
</svg>
