<svg width="20" height="20" viewBox="0 0 20 20" fill="none" xmlns="http://www.w3.org/2000/svg">
<path d="M17.0167 3.81622C16.5987 3.3967 16.1019 3.06384 15.5549 2.83671C15.0079 2.60959 14.4215 2.49268 13.8292 2.49268C13.237 2.49268 12.6505 2.60959 12.1036 2.83671C11.5566 3.06384 11.0598 3.3967 10.6417 3.81622L10.0001 4.46622L9.35841 3.81622C8.94034 3.3967 8.44357 3.06384 7.89659 2.83671C7.34961 2.60959 6.76317 2.49268 6.17091 2.49268C5.57864 2.49268 4.9922 2.60959 4.44522 2.83671C3.89824 3.06384 3.40147 3.3967 2.98341 3.81622C1.21674 5.58289 1.10841 8.56622 3.33341 10.8329L10.0001 17.4996L16.6667 10.8329C18.8917 8.56622 18.7834 5.58289 17.0167 3.81622Z" fill="#513015" stroke="#513015" stroke-width="1.5" stroke-linecap="round" stroke-linejoin="round"/>
</svg>
