<svg width="52" height="52" viewBox="0 0 52 52" fill="none" xmlns="http://www.w3.org/2000/svg">
<path d="M48.3641 23.5012L47.0133 18.1184C47.3789 18.0371 47.6531 17.7121 47.6531 17.3262V16.4527C47.6531 14.5637 46.1195 13.0301 44.2305 13.0301H38.0961V11.2426C38.0961 10.3184 37.3445 9.55664 36.4102 9.55664H5.15937C4.23516 9.55664 3.47344 10.3082 3.47344 11.2426V25.9996C3.47344 26.4465 3.83906 26.8121 4.28594 26.8121C4.73281 26.8121 5.09844 26.4465 5.09844 25.9996V11.2324C5.09844 11.202 5.11875 11.1816 5.14922 11.1816H36.4102C36.4406 11.1816 36.4609 11.202 36.4609 11.2324V25.9996C36.4609 26.4465 36.8266 26.8121 37.2734 26.8121C37.7203 26.8121 38.0859 26.4465 38.0859 25.9996V25.0754H47.6938C48.8719 25.0754 49.8773 25.8473 50.2227 26.9238H47.6938C47.2469 26.9238 46.8813 27.2895 46.8813 27.7363V29.473C46.8813 30.8848 48.0289 32.0223 49.4305 32.0223H50.3547V35.6074H48.2219C47.5211 33.5863 45.6016 32.134 43.3469 32.134C41.0922 32.134 39.1727 33.5863 38.4719 35.6074H38.0758V29.473C38.0758 29.0262 37.7102 28.6605 37.2633 28.6605C36.8164 28.6605 36.4508 29.0262 36.4508 29.473V35.6074H19.5813C18.8805 33.5863 16.9609 32.134 14.7063 32.134C12.4516 32.134 10.532 33.5863 9.83125 35.6074H5.15937C5.12891 35.6074 5.10859 35.5871 5.10859 35.5566V33.7691H8.63281C9.07969 33.7691 9.44531 33.4035 9.44531 32.9566C9.44531 32.5098 9.07969 32.1441 8.63281 32.1441H0.8125C0.365625 32.1441 0 32.5098 0 32.9566C0 33.4035 0.365625 33.7691 0.8125 33.7691H3.47344V35.5566C3.47344 36.4809 4.225 37.2426 5.15937 37.2426H9.55703C9.55703 37.2629 9.55703 37.2832 9.55703 37.2934C9.55703 40.1371 11.8727 42.4527 14.7164 42.4527C17.5602 42.4527 19.8758 40.1371 19.8758 37.2934C19.8758 37.2731 19.8758 37.2527 19.8758 37.2426H38.2281C38.2281 37.2629 38.2281 37.2832 38.2281 37.2934C38.2281 40.1371 40.5438 42.4527 43.3875 42.4527C46.2313 42.4527 48.5469 40.1371 48.5469 37.2934C48.5469 37.2731 48.5469 37.2527 48.5469 37.2426H51.1875C51.6344 37.2426 52 36.877 52 36.4301V27.7465C52 25.5934 50.4156 23.8059 48.3641 23.5012ZM38.1063 14.6551H44.2406C45.2258 14.6551 46.0281 15.4574 46.0281 16.4426V16.4934H38.1063V14.6551ZM38.1063 23.4504V18.1285H45.3375L46.668 23.4504H38.1063ZM14.7063 40.8176C12.7563 40.8176 11.182 39.2332 11.182 37.2934C11.182 35.3535 12.7664 33.7691 14.7063 33.7691C16.6461 33.7691 18.2305 35.3535 18.2305 37.2934C18.2305 39.2332 16.6562 40.8176 14.7063 40.8176ZM43.3672 40.8176C41.4172 40.8176 39.843 39.2332 39.843 37.2934C39.843 35.3535 41.4273 33.7691 43.3672 33.7691C45.3172 33.7691 46.8914 35.3535 46.8914 37.2934C46.8914 39.2332 45.3172 40.8176 43.3672 40.8176ZM50.375 30.3973H49.4508C48.943 30.3973 48.5266 29.9809 48.5266 29.473V28.5488H50.375V30.3973Z" fill="#F97537"/>
<path d="M14.7063 35.6074C13.782 35.6074 13.0203 36.359 13.0203 37.2934C13.0203 38.2277 13.7719 38.9793 14.7063 38.9793C15.6305 38.9793 16.3922 38.2277 16.3922 37.2934C16.3922 36.359 15.6406 35.6074 14.7063 35.6074Z" fill="#F97537"/>
<path d="M43.3672 35.6074C42.443 35.6074 41.6812 36.359 41.6812 37.2934C41.6812 38.2277 42.4328 38.9793 43.3672 38.9793C44.3016 38.9793 45.0531 38.2277 45.0531 37.2934C45.0531 36.359 44.3016 35.6074 43.3672 35.6074Z" fill="#F97537"/>
<path d="M33.8203 32.1348H21.6531C21.2063 32.1348 20.8406 32.5004 20.8406 32.9473C20.8406 33.3941 21.2063 33.7598 21.6531 33.7598H33.8203C34.2672 33.7598 34.6328 33.3941 34.6328 32.9473C34.6328 32.5004 34.2672 32.1348 33.8203 32.1348Z" fill="#F97537"/>
<path d="M12.9695 28.6611H2.54922C2.10235 28.6611 1.73672 29.0268 1.73672 29.4736C1.73672 29.9205 2.10235 30.2861 2.54922 30.2861H12.9695C13.4164 30.2861 13.782 29.9205 13.782 29.4736C13.782 29.0268 13.4266 28.6611 12.9695 28.6611Z" fill="#F97537"/>
<path d="M28.3156 17.6111C28.0008 17.2963 27.4828 17.2963 27.168 17.6111L19.9266 24.8525L16.1586 21.0846C15.8438 20.7697 15.3258 20.7697 15.0109 21.0846C14.6961 21.3994 14.6961 21.9174 15.0109 22.2322L19.3578 26.5791C19.5203 26.7416 19.7234 26.8127 19.9367 26.8127C20.15 26.8127 20.3531 26.7314 20.5156 26.5791L28.3359 18.7588C28.6305 18.4439 28.6305 17.926 28.3156 17.6111Z" fill="#F97537"/>
</svg>
