<svg width="52" height="52" viewBox="0 0 52 52" fill="none" xmlns="http://www.w3.org/2000/svg">
<g clip-path="url(#clip0_585_3831)">
<path d="M49.9992 11.3441L26.3961 -0.0511719C26.2742 -0.112109 26.1422 -0.142578 26 -0.142578C25.8578 -0.142578 25.7258 -0.112109 25.6039 -0.0511719L2.00078 11.3441C1.68593 11.4965 1.49297 11.8113 1.49297 12.1566V39.8324C1.49297 40.1777 1.69609 40.5027 2.00078 40.6449L25.6141 52.0402C25.7359 52.1012 25.868 52.1316 26.0102 52.1316C26.1422 52.1316 26.2844 52.1012 26.4062 52.0402L50.0195 40.6449C50.3344 40.4926 50.5273 40.1777 50.5273 39.8324V12.1566C50.5172 11.8113 50.3141 11.4965 49.9992 11.3441ZM36.268 27.259V19.6012L40.1578 17.7223V25.3902L36.268 27.259ZM13.8328 7.67773L17.9664 5.67695L39.457 16.0566L35.3133 18.0574L13.8328 7.67773ZM41.5391 15.0512C41.5086 15.0309 41.4883 15.0207 41.4578 15.0105L20.018 4.66133L26 1.7668L47.5312 12.1566L41.5391 15.0512ZM22.7398 21.9879C22.5266 22.4348 22.7094 22.9832 23.1664 23.1965L25.0961 24.1309V49.7957L3.29062 39.2738V13.5988L19.9062 21.6223C20.0281 21.6832 20.1602 21.7137 20.3023 21.7137C20.6477 21.7137 20.9727 21.5105 21.1148 21.2059C21.3281 20.759 21.1453 20.2105 20.6883 19.9973L4.46875 12.1566L11.7 8.66289L34.45 19.6418V28.7012C34.45 29.016 34.6125 29.3004 34.8766 29.473C35.0187 29.5645 35.1914 29.6152 35.3539 29.6152C35.4859 29.6152 35.6281 29.5848 35.75 29.5238L41.4477 26.7715C41.7625 26.6191 41.9555 26.3043 41.9555 25.959V16.859L48.6891 13.609V39.2738L26.9039 49.7957V24.1207L32.0937 21.6121C32.5406 21.3988 32.7336 20.8504 32.5203 20.4035C32.368 20.0887 32.0531 19.8957 31.7078 19.8957C31.5758 19.8957 31.4336 19.9262 31.3117 19.9871L26 22.5465L23.9484 21.5613C23.8266 21.5004 23.6945 21.4699 23.5523 21.4699C23.207 21.4699 22.8922 21.673 22.7398 21.9879Z" fill="#F97537"/>
<path d="M9.49609 36.2779L6.03281 34.6022C5.91093 34.5412 5.7789 34.5107 5.63671 34.5107C5.2914 34.5107 4.9664 34.7139 4.82421 35.0186C4.61093 35.4654 4.79375 36.0139 5.25078 36.2272L8.71406 37.9029C8.83593 37.9639 8.96796 37.9943 9.11015 37.9943C9.45546 37.9943 9.78046 37.7912 9.92265 37.4865C10.1359 37.0397 9.95312 36.4912 9.49609 36.2779Z" fill="#F97537"/>
<path d="M12.6852 34.2061L6.03281 30.9967C5.91093 30.9357 5.7789 30.9053 5.63671 30.9053C5.2914 30.9053 4.9664 31.1084 4.82421 31.4131C4.61093 31.86 4.79375 32.4084 5.25078 32.6217L11.9031 35.8311C12.025 35.892 12.157 35.9225 12.2992 35.9225C12.6445 35.9225 12.9695 35.7193 13.1117 35.4147C13.2133 35.2014 13.2336 34.9475 13.1523 34.724C13.0711 34.4904 12.9086 34.3076 12.6852 34.2061Z" fill="#F97537"/>
</g>
<defs>
<clipPath id="clip0_585_3831">
<rect width="52" height="52" fill="white"/>
</clipPath>
</defs>
</svg>
