<svg width="52" height="52" viewBox="0 0 52 52" fill="none" xmlns="http://www.w3.org/2000/svg">
<path d="M43.7862 17.7862C43.7862 7.96675 35.8195 0 26 0C16.1805 0 8.21378 7.96675 8.21378 17.7862C5.66936 18.1074 3.27316 19.7625 3.27316 23.6162V32.9045C3.27316 37.2523 6.31164 38.8333 9.2019 38.8333H12.0675C12.6109 38.8333 13.0556 38.3886 13.0556 37.8451V18.7126C13.0556 18.1691 12.6109 17.7245 12.0675 17.7245H10.19C10.19 8.99192 17.2675 1.91449 26 1.91449C34.7325 1.91449 41.81 8.99192 41.81 17.7245H39.9325C39.3891 17.7245 38.9444 18.1691 38.9444 18.7126V37.8081C38.9444 38.3515 39.3891 38.7962 39.9325 38.7962H41.81C41.5382 45.5896 38.2774 47.1705 31.7558 47.467V46.8124C31.7558 45.7254 30.8665 44.8361 29.7796 44.8361H23.5667C22.4798 44.8361 21.5905 45.7254 21.5905 46.8124V50.0238C21.5905 51.1107 22.4798 52 23.5667 52H29.8043C30.8912 52 31.7805 51.1107 31.7805 50.0238V49.4556C38.0428 49.1715 43.4651 47.8746 43.7862 38.7591C46.3306 38.438 48.7268 36.7829 48.7268 32.9292V23.6409C48.7268 19.7501 46.3306 18.1074 43.7862 17.7862ZM11.0793 19.639V36.8323H9.1525C7.69502 36.8323 5.2 36.3135 5.2 32.8798V23.5914C5.2 20.1824 7.65796 19.639 9.1525 19.639H11.0793ZM29.8043 48.5292V50.0238H23.5667V46.8124H29.8043V48.5292ZM46.7506 32.9045C46.7506 36.3135 44.2926 36.857 42.7981 36.857H40.9207V19.7007H42.8475C44.305 19.7007 46.8 20.2195 46.8 23.6532L46.7506 32.9045Z" fill="#E95B1B"/>
</svg>
