<svg width="60" height="60" viewBox="0 0 60 60" fill="none" xmlns="http://www.w3.org/2000/svg">
<path d="M54.6562 10.3594C46.4062 8.09766 38.0977 4.58203 30.6445 0.175781C30.2461 -0.0585938 29.7539 -0.0585938 29.3672 0.175781C21.6914 4.69922 13.8398 8.03906 5.34375 10.3594C4.79297 10.5117 4.41797 11.0039 4.41797 11.5781V24.4688C4.41797 37.7461 10.5469 46.5352 15.6797 51.5742C21.2109 57 27.6562 60 30 60C32.3438 60 38.7891 57 44.3203 51.5742C49.4648 46.5352 55.582 37.7461 55.582 24.4688V11.5781C55.582 11.0039 55.207 10.5117 54.6562 10.3594ZM53.0625 24.4688C53.0625 36.8672 47.3438 45.0703 42.5508 49.7695C37.1133 55.1016 31.2891 57.4688 30 57.4688C28.7109 57.4688 22.8867 55.1016 17.4492 49.7695C12.6562 45.082 6.9375 36.8789 6.9375 24.4688V12.5391C15.0586 10.2305 22.6172 7.01953 30 2.73047C37.1953 6.90234 45.1406 10.2773 53.0625 12.5391V24.4688Z" fill="#E95B1B"/>
<path d="M18.8086 12.3987C18.5508 11.7542 17.8242 11.4261 17.168 11.6839C14.918 12.5745 12.5977 13.3948 10.2891 14.1097C9.76172 14.2737 9.41016 14.7659 9.41016 15.3167V20.1917C9.41016 20.8831 9.97266 21.4573 10.6758 21.4573C11.3789 21.4573 11.9414 20.8948 11.9414 20.1917V16.2425C14.0156 15.5745 16.0781 14.8362 18.1055 14.0394C18.75 13.7816 19.0664 13.0433 18.8086 12.3987Z" fill="#E95B1B"/>
<path d="M21.2109 12.6324C21.375 12.6324 21.5508 12.5973 21.7148 12.527L21.7383 12.5152C22.3711 12.234 22.664 11.4957 22.3828 10.8512C22.1015 10.2184 21.3515 9.92541 20.7187 10.2067L20.6953 10.2184C20.0508 10.4996 19.7695 11.2379 20.0508 11.8824C20.2617 12.3512 20.7187 12.6324 21.2109 12.6324Z" fill="#E95B1B"/>
<path d="M45.0351 40.6989C44.4492 40.3121 43.664 40.4762 43.289 41.0621C42.2461 42.6559 41.0273 44.1793 39.6562 45.5973C38.5312 46.7575 37.3125 47.8473 36.0351 48.82C35.4843 49.2418 35.3789 50.0387 35.8008 50.5895C36.0468 50.9176 36.4218 51.0817 36.8086 51.0817C37.0781 51.0817 37.3476 50.9996 37.5703 50.8239C38.9531 49.7692 40.2656 48.609 41.4726 47.3551C42.9492 45.8317 44.2734 44.1793 45.3984 42.4567C45.7851 41.859 45.6211 41.0739 45.0351 40.6989Z" fill="#E95B1B"/>
<path d="M33.1172 50.7888L33.0469 50.8356C32.4492 51.1872 32.2383 51.9606 32.5898 52.5583C32.8242 52.9684 33.2461 53.1911 33.6797 53.1911C33.8906 53.1911 34.1133 53.1325 34.3125 53.0153L34.3945 52.9684C34.9922 52.6169 35.2031 51.8434 34.8516 51.2458C34.4883 50.6481 33.7148 50.4372 33.1172 50.7888Z" fill="#E95B1B"/>
<path d="M21.3984 27.4219C20.625 26.6484 19.5938 26.2148 18.4922 26.2148C17.3906 26.2148 16.3711 26.6367 15.5859 27.4219C13.9805 29.0273 13.9805 31.6289 15.5859 33.2227L23.0391 40.6758C23.8125 41.4492 24.8437 41.8828 25.9453 41.8828C27.0469 41.8828 28.0664 41.4609 28.8516 40.6758L44.4141 25.1133C46.0195 23.5078 46.0195 20.9063 44.4141 19.3125C43.6406 18.5391 42.6094 18.1055 41.5078 18.1055C40.4062 18.1055 39.3867 18.5273 38.6016 19.3125L25.9453 31.9687L21.3984 27.4219ZM40.3828 21.1055C40.6758 20.8125 41.0742 20.6484 41.4961 20.6484C41.918 20.6484 42.3164 20.8125 42.6094 21.1055C43.2305 21.7266 43.2305 22.7227 42.6094 23.3437L27.0703 38.8945C26.7773 39.1875 26.3789 39.3516 25.957 39.3516C25.5352 39.3516 25.1367 39.1875 24.8438 38.8945L17.3906 31.4414C16.7695 30.8203 16.7695 29.8242 17.3906 29.2031C17.6836 28.9102 18.082 28.7461 18.5039 28.7461C18.9258 28.7461 19.3242 28.9102 19.6172 29.2031L25.0547 34.6406C25.2891 34.875 25.6172 35.0156 25.9453 35.0156C26.2734 35.0156 26.6016 34.8867 26.8359 34.6406L40.3828 21.1055Z" fill="#E95B1B"/>
</svg>
