<svg width="20" height="21" viewBox="0 0 20 21" fill="none" xmlns="http://www.w3.org/2000/svg">
<path d="M5 2.1665L2.5 5.49984V17.1665C2.5 17.6085 2.67559 18.0325 2.98816 18.345C3.30072 18.6576 3.72464 18.8332 4.16667 18.8332H15.8333C16.2754 18.8332 16.6993 18.6576 17.0118 18.345C17.3244 18.0325 17.5 17.6085 17.5 17.1665V5.49984L15 2.1665H5Z" stroke="#484848" stroke-width="1.5" stroke-linecap="round" stroke-linejoin="round"/>
<path d="M2.5 5.5H17.5" stroke="#484848" stroke-width="1.5" stroke-linecap="round" stroke-linejoin="round"/>
<path d="M13.3337 8.8335C13.3337 9.71755 12.9825 10.5654 12.3573 11.1905C11.7322 11.8156 10.8844 12.1668 10.0003 12.1668C9.11627 12.1668 8.26842 11.8156 7.6433 11.1905C7.01818 10.5654 6.66699 9.71755 6.66699 8.8335" stroke="#484848" stroke-width="1.5" stroke-linecap="round" stroke-linejoin="round"/>
</svg>
