<svg width="20" height="21" viewBox="0 0 20 21" fill="none" xmlns="http://www.w3.org/2000/svg">
<path d="M6.66671 18.8333C7.12694 18.8333 7.50004 18.4602 7.50004 18C7.50004 17.5398 7.12694 17.1667 6.66671 17.1667C6.20647 17.1667 5.83337 17.5398 5.83337 18C5.83337 18.4602 6.20647 18.8333 6.66671 18.8333Z" stroke="white" stroke-width="1.5" stroke-linecap="round" stroke-linejoin="round"/>
<path d="M15.8333 18.8333C16.2936 18.8333 16.6667 18.4602 16.6667 18C16.6667 17.5398 16.2936 17.1667 15.8333 17.1667C15.3731 17.1667 15 17.5398 15 18C15 18.4602 15.3731 18.8333 15.8333 18.8333Z" stroke="white" stroke-width="1.5" stroke-linecap="round" stroke-linejoin="round"/>
<path d="M1.70837 2.20834H3.37504L5.59171 12.5583C5.67302 12.9374 5.88393 13.2762 6.18813 13.5166C6.49233 13.7569 6.8708 13.8836 7.25837 13.875H15.4084C15.7877 13.8744 16.1554 13.7444 16.4509 13.5065C16.7463 13.2687 16.9518 12.9371 17.0334 12.5667L18.4084 6.375H4.26671" stroke="white" stroke-width="1.5" stroke-linecap="round" stroke-linejoin="round"/>
</svg>
