<svg width="18" height="18" viewBox="0 0 18 18" fill="none" xmlns="http://www.w3.org/2000/svg">
<path d="M4.49329 1.11035C3.58731 1.11035 2.76496 1.65312 2.40808 2.48584L1.16333 5.38843C1.12464 5.47676 1.11829 5.54502 1.11829 5.61914V6.39807C1.11829 7.19175 1.58705 7.87736 2.25757 8.20862V14.8356C2.25757 15.9477 3.17023 16.8604 4.28235 16.8604H10.6808C10.9914 16.8604 11.2433 16.6085 11.2433 16.2979C11.2433 15.9872 10.9914 15.7354 10.6808 15.7354H4.28235C3.77402 15.7354 3.38257 15.3439 3.38257 14.8356V8.39758C3.85941 8.33903 4.28849 8.12097 4.60535 7.78784C4.97537 8.17654 5.4943 8.42285 6.06873 8.42285C6.64311 8.42285 7.16127 8.17657 7.53101 7.78784C7.90074 8.17657 8.4189 8.42285 8.99329 8.42285C9.56768 8.42285 10.0858 8.17657 10.4556 7.78784C10.8253 8.17657 11.3435 8.42285 11.9178 8.42285C12.4923 8.42285 13.0112 8.17654 13.3812 7.78784C13.751 8.17657 14.2691 8.42285 14.8435 8.42285C15.9555 8.42285 16.8683 7.51009 16.8683 6.39807V5.7301C16.8934 5.61521 16.8819 5.49533 16.8353 5.38733L15.5807 2.48254C15.2216 1.65102 14.399 1.11035 13.4933 1.11035H4.49329ZM2.24329 6.17285H4.04285V6.39807C4.04285 6.9065 3.6515 7.29785 3.14307 7.29785C2.63464 7.29785 2.24329 6.9065 2.24329 6.39807V6.17285ZM5.16785 6.17285H6.96851V6.39807C6.96851 6.9065 6.57716 7.29785 6.06873 7.29785C5.56029 7.29785 5.16785 6.90599 5.16785 6.39807V6.17285ZM8.09351 6.17285H9.89307V6.39807C9.89307 6.9065 9.50172 7.29785 8.99329 7.29785C8.48485 7.29785 8.09351 6.9065 8.09351 6.39807V6.17285ZM11.0181 6.17285H12.8187V6.39807C12.8187 6.90599 12.4263 7.29785 11.9178 7.29785C11.4094 7.29785 11.0181 6.9065 11.0181 6.39807V6.17285ZM13.9437 6.17285H15.7433V6.39807C15.7433 6.9065 15.3519 7.29785 14.8435 7.29785C14.3351 7.29785 13.9437 6.9065 13.9437 6.39807V6.17285Z" fill="white"/>
<path d="M13.8361 9.27441C12.1613 9.27441 10.8027 10.6692 10.8027 12.3605C10.8027 15.0395 13.5175 16.7913 13.5175 16.7913C13.6112 16.8557 13.7223 16.8902 13.8361 16.8902C13.9498 16.8902 14.0609 16.8557 14.1547 16.7913C14.1547 16.7913 16.8683 15.0395 16.8683 12.3605C16.8683 10.6692 15.5108 9.27441 13.8361 9.27441ZM13.813 11.542C13.8207 11.5419 13.8284 11.5419 13.8361 11.542C13.9412 11.542 14.0454 11.5632 14.1426 11.6043C14.2398 11.6455 14.3281 11.7057 14.4024 11.7817C14.4768 11.8578 14.5358 11.948 14.576 12.0473C14.6163 12.1466 14.637 12.253 14.637 12.3605C14.637 12.4679 14.6163 12.5744 14.576 12.6737C14.5358 12.773 14.4768 12.8632 14.4024 12.9392C14.3281 13.0152 14.2398 13.0755 14.1426 13.1166C14.0454 13.1578 13.9412 13.1789 13.8361 13.179C13.7309 13.1789 13.6267 13.1578 13.5295 13.1166C13.4324 13.0755 13.3441 13.0152 13.2697 12.9392C13.1953 12.8632 13.1363 12.773 13.0961 12.6737C13.0558 12.5744 13.0351 12.4679 13.0352 12.3605C13.035 12.1474 13.1162 11.9428 13.2615 11.7899C13.4067 11.6371 13.6046 11.5481 13.813 11.542ZM5.05579 10.1105C4.90661 10.1105 4.76354 10.1698 4.65806 10.2752C4.55257 10.3807 4.4933 10.5238 4.49329 10.673V13.4855C4.4933 13.6347 4.55257 13.7777 4.65806 13.8832C4.76354 13.9887 4.90661 14.048 5.05579 14.048H8.40222C8.5514 14.048 8.69447 13.9887 8.79995 13.8832C8.90544 13.7777 8.96471 13.6347 8.96472 13.4855V10.673C8.96471 10.5238 8.90544 10.3807 8.79995 10.2752C8.69447 10.1698 8.5514 10.1105 8.40222 10.1105H5.05579Z" fill="white"/>
</svg>
